<?xml version="1.0" encoding="utf-8"?>
<!-- Generator: Adobe Illustrator 25.4.1, SVG Export Plug-In . SVG Version: 6.00 Build 0)  -->
<svg version="1.1" id="Layer_1" xmlns="http://www.w3.org/2000/svg" xmlns:xlink="http://www.w3.org/1999/xlink" x="0px" y="0px"
	 viewBox="0 0 24 24" style="enable-background:new 0 0 24 24;" xml:space="preserve">
<style type="text/css">
	.st0{fill:none;}
	.st1{fill:#FFEB3B;}
</style>
<path class="st0" d="M0,0h24v24H0V0z"/>
<path class="st1" d="M3.5,19.1L5,20.5l1.8-1.8l-1.4-1.4L3.5,19.1z M11,20h2v3h-2V20z M1,11h3v2H1V11z M13,4.1v4l1,0.6
	c1.2,0.7,2,2,2,3.5c0,2.2-1.8,4-4,4s-4-1.8-4-4c0-1.4,0.8-2.7,2-3.5L11,8v-4H13 M15,2.1H9v4.8c-1.8,1-3,3-3,5.2c0,3.3,2.7,6,6,6
	s6-2.7,6-6c0-2.2-1.2-4.2-3-5.2C15,6.9,15,2,15,2.1z M20,11h3v2h-3V11z M17.2,18.7l1.8,1.8l1.4-1.4l-1.8-1.8L17.2,18.7z"/>
</svg>
